<svg xmlns="http://www.w3.org/2000/svg" width="663.36" height="45.87" viewBox="0 0 663.36 45.87"><title>资源 14</title><g id="图层_2" data-name="图层 2"><g id="图层_1-2" data-name="图层 1"><polygon points="352.74 8.25 352.74 13.08 364.14 6.44 364.14 45.1 369.43 45.1 369.43 0.78 365.75 0.78 352.74 8.25"/><polygon points="389.01 8.25 389.01 13.08 400.41 6.44 400.41 45.1 405.69 45.1 405.69 0.78 402.02 0.78 389.01 8.25"/><polygon points="217.31 36.53 192.18 0.78 187.54 0.78 187.54 45.1 192.57 45.1 192.57 9.34 217.69 45.1 222.33 45.1 222.33 0.78 217.31 0.78 217.31 36.53"/><path d="M247,12.11c-9.15,0-15.52,7-15.52,16.88S237.85,45.87,247,45.87s15.53-7,15.53-16.88S256.09,12.11,247,12.11Zm0,29.51c-6.05,0-10.3-5.22-10.3-12.63S241,16.37,247,16.37,257.25,21.58,257.25,29,253,41.62,247,41.62Z"/><path d="M277.34,3.8h-5.09v9.09h-6.18V17h6.18V36.47c0,5.47,4,9.4,9.73,9.4a15.9,15.9,0,0,0,6.31-1.48V39.94A11.75,11.75,0,0,1,283,41.62,5.36,5.36,0,0,1,277.34,36V17h11V12.89h-11Z"/><path d="M308,12.11c-8.7,0-14.95,6.9-14.95,16.62,0,10.05,6.51,17.14,15.78,17.14A22.64,22.64,0,0,0,319,43.36V38.72a18.1,18.1,0,0,1-9.47,3.09c-6.38,0-11-4.76-11.28-11.66h22.87c.07-.77.07-1.48.07-2.25C321.15,18.62,315.93,12.11,308,12.11Zm-9.8,14.43c.39-6.18,4.26-10.37,9.6-10.37,4.83,0,8.25,4.25,8.31,10.37Z"/><path d="M451.2.77H437.48V45.1h5.15v-17h8.57c8.69,0,14.94-5.54,14.94-13.66S459.89.77,451.2.77Zm-.77,23.13h-7.8V5h7.8c6.12,0,10.37,3.87,10.37,9.47S456.55,23.9,450.43,23.9Z"/><path d="M479,16.75V12.88h-5.09V45.1H479V21.71c2.45-3.29,5.6-5,8.63-5a12.31,12.31,0,0,1,3.42.51V12.56a11.11,11.11,0,0,0-3.16-.45C484.69,12.11,481.47,13.79,479,16.75Z"/><path d="M510.2,12.11c-9.15,0-15.52,7-15.52,16.88s6.37,16.88,15.52,16.88,15.53-7,15.53-16.88S519.29,12.11,510.2,12.11Zm0,29.51c-6.05,0-10.3-5.22-10.3-12.63s4.25-12.63,10.3-12.63S520.45,21.58,520.45,29,516.19,41.62,510.2,41.62Z"/><polygon points="548.79 10.82 544.34 10.82 544.34 24.74 530.43 24.74 530.43 29.18 544.34 29.18 544.34 43.1 548.79 43.1 548.79 29.18 562.7 29.18 562.7 24.74 548.79 24.74 548.79 10.82"/><path d="M604.67,18a32.47,32.47,0,0,0-5.41.58V5.22h17.65V.77H594.56V23.32a36.62,36.62,0,0,1,8.7-1.16c6.18,0,10.43,4.06,10.43,9.54,0,5.73-4.44,9.72-10.69,9.72a17.46,17.46,0,0,1-9.79-3.28v5.22a22.62,22.62,0,0,0,10.17,2.51c9.22,0,15.66-5.93,15.66-14.17C619,23.64,613.3,18,604.67,18Z"/><path d="M647.77,22.29v4.06H658.4v13a23.14,23.14,0,0,1-9.15,2.13c-9.66,0-16.43-7.67-16.43-18.56s6.83-18.55,16.62-18.55c4.06,0,8.12,1.48,12.31,4.32V3.54A26.25,26.25,0,0,0,648.86,0c-12.56,0-21.39,9.53-21.39,22.93s8.89,22.94,21.46,22.94a31.27,31.27,0,0,0,14.43-3.74V22.29Z"/><path d="M151.84.84a4.08,4.08,0,0,0-4.15,4.09,4.15,4.15,0,0,0,8.3,0A4.11,4.11,0,0,0,151.84.84Z"/><rect x="148.64" y="13.89" width="6.29" height="29.9"/><path d="M131.59,12.11a18.17,18.17,0,0,0-10.38,3.44c-2.25-2.31-5.7-3.44-9.85-3.44-4.45,0-9.19,1.19-12.16,3.56V43.79h6.29V18.93a8.31,8.31,0,0,1,5.22-1.54c4,0,7,2,7,6.88V43.79H124V19.94a9.57,9.57,0,0,1,6.23-2.55c3.68,0,5.93,2,5.93,6.88V43.79h6.29V23.09C142.45,15.73,138.48,12.11,131.59,12.11Z"/><path d="M86.46,13.12a24.46,24.46,0,0,0-6.53-1c-8.78,0-14.59,6-14.59,16.49,0,10.92,6.82,16.5,16.25,16.5a31.84,31.84,0,0,0,11.16-2.26V.07L86.46,1.73Zm.06,25.81a18.24,18.24,0,0,1-4.75.71c-6,0-9.67-4.15-9.67-11,0-7.47,3.21-11.15,8.78-11.15a19.36,19.36,0,0,1,5.64,1Z"/><path d="M47.11,12.11c-8.66,0-14.89,5.52-14.89,16.26,0,11.51,6.34,16.73,16,16.73a25.78,25.78,0,0,0,11.16-2.67V37.27a26.55,26.55,0,0,1-11.1,2.37C43.07,39.64,39,36.73,39,31H60.69C61,18.64,56.54,12.11,47.11,12.11ZM39,26.11c0-5.4,3.32-8.78,8.07-8.78,5.22,0,7.71,3.74,7.71,8.78Z"/><path d="M28.36,12.7C28.36,5.76,23.2.84,15.19.84H0V43.79H6.29V25.46H13.7l8.49,18.33H29.6L20.17,24.51C25.22,22.38,28.36,18.1,28.36,12.7ZM13.29,20.24h-7V6.06h7c5.34,0,8.42,2.61,8.42,7.06S18.63,20.24,13.29,20.24Z"/></g></g></svg>